<?xml version="1.0"?>
<svg xmlns="http://www.w3.org/2000/svg" viewBox="0 0 20 20">
    <path fill="#FFF" d="M14.65 8.512C12.37 3.6 11.18 1.73 7.45 1.81c-1.33.02-1.01-.97-2.021-.59 -1.01.375-.15.92-1.18 1.773 -2.91 2.383-2.635 4.587-1.29 9.84 .56 2.21-1.367 2.32-.61 4.465 .55 1.564 4.679 2.21 9.025.6 4.34-1.62 7.086-4.814 6.52-6.378 -.77-2.15-2.32-.97-3.28-3.03Zm-3.73 8.08c-3.89 1.44-7.072.59-7.207.21 -.24-.65 1.25-2.82 5.691-4.47 4.43-1.65 6.91-1.04 7.17-.32 .15.42-1.78 3.11-5.66 4.55Zm-1.25-3.5c-2.029.75-3.439 1.61-4.353 2.38 .64.58 1.84.72 3.04.28 1.52-.57 2.46-1.87 2.09-2.904 -.01-.02-.02-.03-.02-.04 -.26.08-.51.17-.78.27Z"></path>
</svg>