<?xml version="1.0"?>
<svg xmlns="http://www.w3.org/2000/svg" viewBox="0 0 32 32">
    <path fill="#FFF" fill-rule="evenodd" d="M392 129c0 1.1-.9 2-2 2h-5.17l-7.37-7.47 8.53-8.54 6 6v8 0Zm-26 2c-1.11 0-2-.9-2-2v-.94l7.94-7.116 10.05 10.05h-16.01v0Zm4-26c2.2 0 4 1.79 4 4 0 2.2-1.8 4-4 4 -2.21 0-4-1.8-4-4 0-2.21 1.79-4 4-4v0Zm20-4h-24c-2.21 0-4 1.79-4 4v24c0 2.2 1.79 4 4 4h24c2.2 0 4-1.8 4-4v-24c0-2.21-1.8-4-4-4v0Zm-20 10c1.1 0 2-.9 2-2 0-1.11-.9-2-2-2 -1.11 0-2 .89-2 2 0 1.1.89 2 2 2v0Z" transform="translate(-362-101)"></path>
</svg>