<?xml version="1.0"?>
<svg xmlns="http://www.w3.org/2000/svg" viewBox="0 -51.4286 30 26.7857">
    <path fill="#FFF" d="M30-41.79c0 .29-.11.54-.32.75l-8.58 8.57c-.22.21-.47.31-.76.31 -.3 0-.55-.11-.76-.32 -.22-.22-.32-.47-.32-.76v-4.29h-3.75c-1.1 0-2.08.03-2.94.1 -.87.06-1.73.18-2.58.35 -.86.17-1.6.41-2.23.71 -.64.3-1.22.68-1.77 1.16 -.55.47-1 1.03-1.34 1.69 -.35.65-.62 1.42-.82 2.31 -.2.89-.3 1.9-.3 3.03 0 .61.02 1.3.08 2.05 0 .06.01.19.04.39 .02.19.04.34.04.44 0 .16-.05.3-.15.41 -.1.11-.23.16-.4.16 -.18 0-.34-.1-.47-.29 -.08-.11-.16-.23-.22-.37 -.07-.15-.15-.32-.23-.51 -.09-.19-.15-.33-.18-.41 -1.42-3.19-2.13-5.7-2.13-7.56 0-2.23.29-4.08.88-5.58 1.8-4.5 6.69-6.75 14.64-6.75h3.75v-4.29c0-.3.1-.55.31-.76 .21-.22.46-.32.75-.32s.54.1.75.31l8.57 8.57c.21.21.31.46.31.75Z" transform="translate(0 .10714)"></path>
</svg>