<?xml version="1.0"?>
<svg xmlns="http://www.w3.org/2000/svg" viewBox="0 0 24 24">
    <g fill="#8103FC">
        <path d="M16.646 12.85c.19.19.51.19.7 0l.64-.65 .64.64c.09.09.22.14.35.14 .12 0 .25-.05.35-.15l1-1c.09-.1.14-.23.14-.36v-8.5c0-.23-.16-.43-.38-.49l-4-1c-.15-.04-.31-.01-.43.09 -.13.09-.2.24-.2.39v9.5c0 .13.05.26.14.35l1 1Z"></path>
        <path d="M4.646 12.85c.19.19.51.19.7 0l.64-.65 .64.64c.09.09.22.14.35.14 .12 0 .25-.05.35-.15l1-1c.09-.1.14-.23.14-.36v-9.5c0-.16-.07-.3-.2-.4 -.13-.1-.29-.13-.43-.1l-4 1c-.23.05-.38.25-.38.48v8.5c0 .13.05.26.14.35l1 1Z"></path>
        <path d="M9.323.902c-.07.13-.06.29.01.42 .11.22.16.44.16.669v9.5c0 .39-.16.78-.44 1.061l-1 1c-.47.47-1.24.56-1.81.23 -.16-.09-.35-.09-.51 0 -.569.33-1.338.23-1.81-.24l-1-1c-.28-.28-.44-.67-.44-1.07V3.2c0-.16-.08-.31-.2-.4 -.13-.1-.29-.13-.44-.09l-1 .27c-.22.05-.369.25-.369.48v17c0 .22.15.42.369.48l10.63 2.9V.07l-1.86.5c-.15.04-.27.14-.33.279Zm.53 17.45c-.1.09-.23.14-.36.14 -.13 0-.26-.05-.36-.15l-.65-.65v1.79c0 .27-.23.5-.5.5 -.28 0-.5-.23-.5-.5v-1.8l-.65.64c-.2.19-.52.19-.71 0 -.2-.2-.2-.52 0-.71l1.49-1.5c.04-.05.1-.09.16-.11 .12-.06.26-.06.38 0 .06.02.11.06.16.1l1.49 1.49c.19.19.19.51 0 .7Z"></path>
        <path d="M23.13 3.017l-1-.28c-.15-.04-.32-.01-.44.08 -.13.09-.2.24-.2.39v8.272c0 .39-.16.78-.44 1.061l-1 1c-.47.47-1.24.56-1.81.23 -.16-.09-.35-.09-.51 0 -.57.33-1.34.23-1.81-.24l-1-1c-.28-.28-.44-.67-.44-1.061v-9.5c0-.23.05-.45.16-.669 .06-.14.07-.3.01-.43 -.07-.137-.18-.239-.33-.279L12.46.08v23.764l10.631-2.9c.21-.06.36-.26.36-.49v-17c0-.23-.16-.43-.37-.49Zm-5.98 15.957l-3 1c-.06.01-.11.02-.16.02 -.21 0-.41-.14-.48-.35 -.09-.27.05-.55.31-.64l3-1c.26-.09.54.05.63.31 .08.26-.06.54-.32.63Z"></path>
    </g>
</svg>